<svg xmlns="http://www.w3.org/2000/svg" width="1000" height="320" viewBox="0 0 1000 320" role="img" aria-labelledby="title desc">
  <title id="title">Chorus — 让 AI Agent 彼此协作</title><desc id="desc">本地优先的 Agent 通信工作台</desc>
  <defs><linearGradient id="bg" x1="0" y1="0" x2="1" y2="1"><stop stop-color="#0d1020"/><stop offset="1" stop-color="#111c2c"/></linearGradient><linearGradient id="brand" x1="0" y1="0" x2="1" y2="0"><stop stop-color="#8b7cff"/><stop offset="1" stop-color="#22d3ee"/></linearGradient><pattern id="grid" width="28" height="28" patternUnits="userSpaceOnUse"><path d="M28 0H0V28" fill="none" stroke="#28304b" opacity=".65"/></pattern></defs>
  <rect x="1" y="1" width="998" height="318" rx="24" fill="url(#bg)" stroke="#2c3552" stroke-width="2"/><rect x="1" y="1" width="998" height="318" rx="24" fill="url(#grid)"/>
  <g font-family="system-ui,-apple-system,'Segoe UI','PingFang SC','Microsoft YaHei',sans-serif"><rect x="54" y="48" width="206" height="30" rx="15" fill="#14192c" stroke="#303a59"/><circle cx="72" cy="63" r="5" fill="#4ade80"/><text x="86" y="68" font-size="12" font-weight="700" letter-spacing="1.2" fill="#aab4cf">LOCAL-FIRST WORKSPACE</text><text x="52" y="162" font-size="78" font-weight="820" letter-spacing="-4" fill="#f4f6ff">CHORUS</text><rect x="54" y="179" width="104" height="6" rx="3" fill="url(#brand)"/><text x="54" y="225" font-size="25" font-weight="700" fill="#edf0ff">让 AI Agent 彼此协作</text><text x="54" y="258" font-size="18" fill="#aab4cf">统一入口 · A2A 通信 · 跨设备协作</text></g>
  <g transform="translate(635 47)" font-family="ui-monospace,SFMono-Regular,Menlo,monospace"><rect width="308" height="226" rx="18" fill="#14192c" stroke="#303a59"/><circle cx="154" cy="113" r="42" fill="#211f48" stroke="#8b7cff" stroke-width="2"/><text x="154" y="109" text-anchor="middle" font-size="13" font-weight="800" fill="#a99fff">CHORUS</text><text x="154" y="127" text-anchor="middle" font-size="10" fill="#aab4cf">A2A HUB</text><path d="M117 91 76 62M191 91l42-29M112 129l-48 33M196 129l48 33" stroke="url(#brand)" stroke-width="2" stroke-dasharray="5 5"/><g fill="#171d32" stroke="#35405f"><rect x="26" y="34" width="92" height="42" rx="10"/><rect x="190" y="34" width="92" height="42" rx="10"/><rect x="18" y="148" width="98" height="42" rx="10"/><rect x="192" y="148" width="98" height="42" rx="10"/></g><g font-size="11" font-weight="700" text-anchor="middle" fill="#d8dded"><text x="72" y="60">CLAUDE</text><text x="236" y="60">CODEX</text><text x="67" y="174">API AGENT</text><text x="241" y="174">REMOTE HUB</text></g></g>
</svg>
